# xmcd
#
# Track frame offsets:
#	150
#	24295
#	45486
#	66366
#	91810
#	114224
#	130640
#	171508
#	192621
#	215761
#	244012
#	270466
#
# Disc length: 4009 seconds
#
# Revision: 0
# Processed by: cddbd v1.5.2PL0 Copyright (c) Steve Scherf et al.
# Submitted via: EasyCDDAExtractor 10.0.2.1
#
DISCID=a40fa70c
DTITLE=Grateful Dead - Beyond Description 1973-1989
DYEAR=2004
DGENRE=Classic Rock
TTITLE0=Eyes Of The World
TTITLE1=U. S. Blues
TTITLE2=The Music Never Stopped
TTITLE3=Estimated Prophet
TTITLE4=Good Lovin' (Studio Outtake)
TTITLE5=Alabama Getaway
TTITLE6=To Lay Me Down (Live)
TTITLE7=Ripple (Live)
TTITLE8=Samson And Delilah (Live)
TTITLE9=Jack Straw (Live)
TTITLE10=Touch Of Grey
TTITLE11=Picasso Moon
EXTD=
EXTT0=
EXTT1=
EXTT2=
EXTT3=
EXTT4=
EXTT5=
EXTT6=
EXTT7=
EXTT8=
EXTT9=
EXTT10=
EXTT11=
PLAYORDER=
